<mxfile host="app.diagrams.net" agent="Mozilla/5.0 (Windows NT 10.0; Win64; x64) AppleWebKit/537.36 (KHTML, like Gecko) Chrome/129.0.0.0 Safari/537.36" version="24.7.17">
  <diagram name="PÃ¡gina-1" id="ZPdm0QS4wIrC8lTsnpqV">
    <mxGraphModel>
      <root>
        <mxCell id="0" />
        <mxCell id="1" parent="0" />
        <mxCell id="2" value="Administrator Access Module" style="whiteSpace=wrap;strokeWidth=2;" vertex="1" parent="1">
          <mxGeometry x="643" y="16" width="210" height="119" as="geometry" />
        </mxCell>
        <mxCell id="3" value="User Access Module" style="whiteSpace=wrap;strokeWidth=2;" vertex="1" parent="1">
          <mxGeometry x="8" y="8" width="494" height="134" as="geometry" />
        </mxCell>
        <mxCell id="4" value="User" style="whiteSpace=wrap;strokeWidth=2;" vertex="1" parent="1">
          <mxGeometry x="33" y="51" width="93" height="49" as="geometry" />
        </mxCell>
        <mxCell id="5" value="Access Module" style="whiteSpace=wrap;strokeWidth=2;" vertex="1" parent="1">
          <mxGeometry x="313" y="51" width="164" height="49" as="geometry" />
        </mxCell>
        <mxCell id="6" value="Administrator" style="whiteSpace=wrap;strokeWidth=2;" vertex="1" parent="1">
          <mxGeometry x="668" y="51" width="160" height="49" as="geometry" />
        </mxCell>
        <mxCell id="7" value="Access" style="curved=1;startArrow=none;endArrow=block;exitX=1;exitY=0.34;entryX=0;entryY=0.29;" edge="1" parent="1" source="4" target="5">
          <mxGeometry relative="1" as="geometry">
            <Array as="points">
              <mxPoint x="219" y="54" />
            </Array>
          </mxGeometry>
        </mxCell>
        <mxCell id="8" value="Show Notifications" style="curved=1;startArrow=none;endArrow=block;exitX=0;exitY=0.69;entryX=1;entryY=0.63;" edge="1" parent="1" source="5" target="4">
          <mxGeometry relative="1" as="geometry">
            <Array as="points">
              <mxPoint x="219" y="97" />
            </Array>
          </mxGeometry>
        </mxCell>
        <mxCell id="9" value="Deny Access" style="curved=1;startArrow=none;endArrow=block;exitX=1;exitY=0.49;entryX=0;entryY=0.49;" edge="1" parent="1" source="5" target="6">
          <mxGeometry relative="1" as="geometry">
            <Array as="points" />
          </mxGeometry>
        </mxCell>
      </root>
    </mxGraphModel>
  </diagram>
</mxfile>
